<svg width="68" height="59" viewBox="0 0 68 59" fill="none" xmlns="http://www.w3.org/2000/svg">
<path d="M63.9707 6.51762L59.6079 4.77959V32.8054L67.5195 14.6181C68.8543 11.4524 67.3241 7.82115 63.9707 6.51762ZM0.482996 18.0011L16.6317 55.0894C17.1072 56.2178 17.9183 57.1892 18.9653 57.8839C20.0123 58.5787 21.2494 58.9666 22.5246 59C23.3711 59 24.2502 58.8448 25.0967 58.5034L49.0918 49.0373C51.5336 48.0752 53.0312 45.7785 53.0964 43.4818C53.1289 42.6749 52.9661 41.7749 52.6731 40.9679L36.3942 3.87954C35.9341 2.74367 35.1259 1.76615 34.0748 1.07422C33.0238 0.382281 31.7786 0.0079693 30.5013 0C29.6548 0 28.8083 0.186218 27.9943 0.465545L4.03179 9.93161C2.43895 10.5534 1.17033 11.7528 0.504851 13.2659C-0.160627 14.7791 -0.168488 16.4823 0.482996 18.0011ZM53.0638 6.20726C53.0638 4.56099 52.3778 2.98215 51.1566 1.81806C49.9355 0.653977 48.2792 0 46.5523 0H41.8314L53.0638 25.8843" fill="#FD131D"/>
</svg>
