<svg width="45" height="46" viewBox="0 0 45 46" fill="none" xmlns="http://www.w3.org/2000/svg">
<path d="M22.6707 0.000349359C22.5621 0.00113061 22.4533 0.00288845 22.3442 0.00572048C18.5044 0.107381 14.3846 1.56549 10.2559 4.92799L9.66719 5.40748L9.10742 4.89478C7.87266 3.76412 7.12734 2.19625 6.60225 0.625642C5.72588 4.23697 5.17344 8.5734 5.70068 11.8095C7.46484 11.8982 10.1352 11.5969 12.8979 11.0461C14.6419 10.6983 16.4183 10.2525 18.08 9.76949C16.7695 9.48521 15.5511 9.09742 14.3551 8.58961L12.784 7.92242L14.2396 7.03111C18.7677 4.25836 22.1463 3.05787 25.9813 3.55914C29.2143 3.9817 32.7545 5.59693 37.6089 8.17545C35.1311 4.62916 31.5305 1.85347 27.3815 0.656502C25.8774 0.222615 24.3002 -0.0102952 22.6707 0.000349359V0.000349359ZM31.25 9.29508C26.6927 9.29508 26.6928 9.29508 26.6928 13.8523V32.088C26.6928 33.0252 26.6935 33.7668 26.7332 34.3578C28.3659 33.8954 30.0162 33.4972 31.6801 33.1641C34.0872 32.6841 36.4034 32.361 38.3125 32.3428C38.9489 32.3368 39.5401 32.3647 40.0743 32.4319L40.6905 32.5093L40.8231 33.1161C41.0638 34.2162 41.1818 35.4058 41.2054 36.6375C44.9194 36.6189 44.9219 36.3386 44.9219 32.0818V13.8522C44.9219 9.29508 44.9219 9.29508 40.3646 9.29508C40.4988 9.54129 40.6284 9.79004 40.7531 10.0412L41.9859 12.5349L39.5441 11.2021C38.2663 10.5045 37.0867 9.87086 35.9844 9.29508H31.25ZM3.7165 9.29664C0.00244118 9.31519 0 9.59547 0 13.8523V32.088C0 36.6388 0 36.6388 4.55723 36.6388C4.42303 36.3926 4.29351 36.1439 4.16875 35.8927L2.93594 33.399L5.37773 34.7319C6.65557 35.4294 7.83516 36.0631 8.9375 36.6388H13.6719C18.2292 36.6388 18.2291 36.6388 18.2291 32.0816V13.8523C18.2291 12.9123 18.2285 12.1687 18.1885 11.5765C16.5558 12.0388 14.9057 12.4369 13.2418 12.7699C10.0323 13.4099 6.98428 13.7709 4.84756 13.5021L4.23135 13.4247L4.09873 12.8179C3.85811 11.7178 3.74004 10.5283 3.7165 9.29664V9.29664ZM38.3473 34.1089C36.6341 34.1334 34.3604 34.422 32.024 34.8879C30.28 35.2356 28.5035 35.6814 26.8419 36.1645C28.1523 36.4487 29.3708 36.8365 30.5668 37.3444L32.1379 38.0116L30.6822 38.9029C26.1542 41.6755 22.7756 42.876 18.9405 42.3749C15.7076 41.9523 12.1674 40.337 7.31299 37.7585C9.79082 41.3048 13.3914 44.0805 17.5403 45.2774C22.6744 46.7585 28.6606 45.8968 34.666 41.0059L35.2547 40.5264L35.8145 41.0391C37.0492 42.1699 37.7945 43.7377 38.3196 45.3084C39.196 41.6969 39.7484 37.3605 39.2212 34.1244C38.9489 34.1107 38.6599 34.1045 38.3472 34.1089H38.3473Z" fill="#FD131D"/>
</svg>
