<svg xmlns="http://www.w3.org/2000/svg" width="328" height="106" fill="none" viewBox="0 0 328 106">
  <path fill="#FD131D" d="m151.971 30.518-4.363-1.738v28.025l7.911-18.187c1.335-3.166-.195-6.797-3.548-8.1ZM88.483 42l16.149 37.088a6.295 6.295 0 0 0 2.333 2.795 6.763 6.763 0 0 0 3.56 1.116c.846 0 1.725-.155 2.572-.497l23.995-9.466c2.442-.962 3.939-3.259 4.004-5.555.033-.807-.13-1.707-.423-2.514l-16.279-37.089a6.12 6.12 0 0 0-2.319-2.805A6.58 6.58 0 0 0 118.501 24c-.846 0-1.693.186-2.507.465l-23.962 9.467c-1.593.621-2.862 1.82-3.527 3.334A5.922 5.922 0 0 0 88.483 42Zm52.581-11.794c0-1.646-.686-3.225-1.907-4.389A6.68 6.68 0 0 0 134.552 24h-4.721l11.233 25.884"/>
  <path fill="#fff" d="m100.903 46.44-5.592 11.472h-4.296L85.423 46.44h4.656l2.4 5.616c.144.336.248.704.312 1.104.08.384.16.752.24 1.104h.288c.064-.352.136-.728.216-1.128.096-.4.208-.768.336-1.104l2.376-5.592h4.656Zm-5.472 8.856V63h-4.512v-7.704h4.512Zm13.304-9.192c.816 0 1.536.024 2.16.072.64.048 1.232.12 1.776.216.56.08 1.112.2 1.656.36l-.336 3.264a60.538 60.538 0 0 0-1.68-.024 56.334 56.334 0 0 0-1.656-.024 66.063 66.063 0 0 0-1.872-.024c-.56 0-1.032.064-1.416.192a1.695 1.695 0 0 0-.888.72c-.208.352-.36.848-.456 1.488-.096.624-.144 1.424-.144 2.4 0 1.232.072 2.192.216 2.88.16.688.416 1.168.768 1.44.352.272.84.408 1.464.408.416 0 .792-.024 1.128-.072a6.11 6.11 0 0 0 .936-.24l.744-.288.456 1.968c-.208.32-.544.68-1.008 1.08-.448.384-1.008.72-1.68 1.008-.672.272-1.448.408-2.328.408-1.248 0-2.28-.288-3.096-.864-.8-.592-1.392-1.52-1.776-2.784-.368-1.264-.552-2.92-.552-4.968 0-2.144.24-3.84.72-5.088.496-1.264 1.296-2.168 2.4-2.712 1.12-.544 2.608-.816 4.464-.816Zm6.24 7.368V63h-3.312l-.6-2.544-.408-.792v-6.192h4.32Zm9.436-7.368c1.376 0 2.536.136 3.48.408.944.272 1.712.736 2.304 1.392.592.64 1.016 1.512 1.272 2.616s.384 2.504.384 4.2c0 1.68-.128 3.08-.384 4.2-.256 1.104-.68 1.984-1.272 2.64-.592.64-1.36 1.096-2.304 1.368-.944.272-2.104.408-3.48.408-1.36 0-2.52-.136-3.48-.408-.944-.272-1.712-.728-2.304-1.368-.592-.656-1.016-1.536-1.272-2.64-.256-1.12-.384-2.52-.384-4.2 0-1.696.128-3.096.384-4.2s.68-1.976 1.272-2.616c.592-.656 1.36-1.12 2.304-1.392.96-.272 2.12-.408 3.48-.408Zm0 3.432c-.704 0-1.256.144-1.656.432-.384.288-.656.808-.816 1.56-.16.752-.24 1.816-.24 3.192 0 1.376.08 2.44.24 3.192.16.752.432 1.272.816 1.56.4.288.952.432 1.656.432s1.248-.144 1.632-.432c.4-.288.672-.808.816-1.56.16-.752.24-1.816.24-3.192 0-1.376-.08-2.44-.24-3.192-.144-.752-.416-1.272-.816-1.56-.384-.288-.928-.432-1.632-.432Zm23.394-3.096-3.888 8.088L148.141 63h-4.512l-3.912-8.472 3.6-8.088h4.488Zm-10.632 0 3.6 8.088L136.861 63h-4.512l4.224-8.472-3.888-8.088h4.488Zm5.136 6.744v2.592h-4.44v-2.592h4.44Zm13.598-7.032c.832 0 1.536.024 2.112.072.592.048 1.128.112 1.608.192.496.08 1 .192 1.512.336l-.336 3.312a25.87 25.87 0 0 0-1.512-.048c-.464-.016-.96-.024-1.488-.024a63.894 63.894 0 0 0-1.896-.024c-.656 0-1.176.136-1.56.408-.368.272-.624.752-.768 1.44-.144.688-.216 1.656-.216 2.904s.072 2.216.216 2.904c.144.688.4 1.168.768 1.44.384.272.904.408 1.56.408 1.168 0 2.136-.016 2.904-.048a38.72 38.72 0 0 0 2.352-.168l.336 3.288c-.8.272-1.624.464-2.472.576-.832.112-1.872.168-3.12.168-1.776 0-3.2-.272-4.272-.816-1.056-.56-1.824-1.464-2.304-2.712-.464-1.248-.696-2.928-.696-5.04s.232-3.792.696-5.04c.48-1.248 1.248-2.144 2.304-2.688 1.072-.56 2.496-.84 4.272-.84Zm12.065.288V63h-4.488V46.44h4.488Zm5.232 6.144v3.24h-5.424v-3.24h5.424Zm4.248-6.144V63h-4.512V46.44h4.512Zm11.57 0c.368 0 .688.104.96.312.288.208.48.496.576.864L195.094 63h-4.608l-2.904-11.424c-.064-.272-.12-.56-.168-.864-.048-.32-.096-.616-.144-.888h-.648c-.032.272-.08.568-.144.888-.048.304-.104.592-.168.864L183.406 63h-4.608l4.536-15.384c.096-.368.28-.656.552-.864.288-.208.616-.312.984-.312h4.152Zm2.28 9.384v3.24h-8.712v-3.24h8.712Zm19.775-9.384v14.976c0 1.056-.52 1.584-1.56 1.584h-2.016c-.48 0-.84-.112-1.08-.336-.224-.224-.456-.552-.696-.984l-4.056-7.056c-.192-.4-.384-.832-.576-1.296a11.954 11.954 0 0 1-.48-1.392h-.216c.064.464.112.944.144 1.44.048.48.072.944.072 1.392V63h-4.2V48.024c0-1.056.528-1.584 1.584-1.584h1.992c.48 0 .832.112 1.056.336.224.224.464.552.72.984l3.888 6.792c.224.384.44.808.648 1.272.208.464.408.952.6 1.464h.216a49.129 49.129 0 0 1-.12-1.464c-.032-.48-.048-.96-.048-1.44l-.024-7.944h4.152Zm9.97-.336c.816 0 1.536.024 2.16.072.64.048 1.232.12 1.776.216.56.08 1.112.2 1.656.36l-.336 3.264a60.538 60.538 0 0 0-1.68-.024 56.334 56.334 0 0 0-1.656-.024 66.063 66.063 0 0 0-1.872-.024c-.56 0-1.032.064-1.416.192a1.695 1.695 0 0 0-.888.72c-.208.352-.36.848-.456 1.488-.096.624-.144 1.424-.144 2.4 0 1.232.072 2.192.216 2.88.16.688.416 1.168.768 1.44.352.272.84.408 1.464.408.416 0 .792-.024 1.128-.072a6.11 6.11 0 0 0 .936-.24l.744-.288.456 1.968c-.208.32-.544.68-1.008 1.08-.448.384-1.008.72-1.68 1.008-.672.272-1.448.408-2.328.408-1.248 0-2.28-.288-3.096-.864-.8-.592-1.392-1.52-1.776-2.784-.368-1.264-.552-2.92-.552-4.968 0-2.144.24-3.84.72-5.088.496-1.264 1.296-2.168 2.4-2.712 1.12-.544 2.608-.816 4.464-.816Zm6.24 7.368V63h-3.312l-.6-2.544-.408-.792v-6.192h4.32Zm6.101-7.104h2.832c.976 0 1.928.024 2.856.072.944.032 1.808.096 2.592.192l-.216 3.216h-6.192c-.352 0-.624.096-.816.288-.192.176-.288.424-.288.744v7.68c0 .32.096.576.288.768.192.176.464.264.816.264h6.192l.216 3.216c-.784.08-1.648.144-2.592.192-.928.032-1.88.048-2.856.048-.96.016-1.904.024-2.832.024-1.104 0-2-.328-2.688-.984-.688-.656-1.032-1.512-1.032-2.568v-9.6c0-1.072.344-1.928 1.032-2.568.688-.656 1.584-.984 2.688-.984Zm-3.288 6.576h10.488v3.048H230.1v-3.048Z"/>
</svg>
